<?xml version="1.0" standalone="no"?>
<!DOCTYPE svg PUBLIC "-//W3C//DTD SVG 20010904//EN"
 "http://www.w3.org/TR/2001/REC-SVG-20010904/DTD/svg10.dtd">
<svg version="1.0" xmlns="http://www.w3.org/2000/svg"
 width="496.000000pt" height="503.000000pt" viewBox="0 0 496.000000 503.000000"
 preserveAspectRatio="xMidYMid meet">

<g transform="translate(0.000000,503.000000) scale(0.100000,-0.100000)"
fill="#000000" stroke="none">
<path d="M2380 4874 c-14 -2 -81 -8 -149 -12 -79 -6 -126 -13 -129 -20 -2 -8
-28 -12 -67 -12 -35 0 -67 -4 -70 -10 -3 -5 -24 -10 -45 -10 -21 0 -45 -7 -54
-15 -8 -8 -30 -15 -50 -15 -19 0 -38 -4 -41 -10 -3 -5 -20 -10 -36 -10 -17 0
-32 -6 -35 -15 -4 -9 -19 -15 -39 -15 -19 0 -37 -4 -40 -10 -3 -5 -15 -10 -26
-10 -11 0 -22 -7 -25 -15 -4 -8 -17 -15 -29 -15 -24 0 -87 -29 -93 -42 -2 -5
-15 -8 -28 -8 -13 0 -24 -4 -24 -10 0 -5 -11 -12 -25 -16 -14 -3 -25 -10 -25
-15 0 -5 -7 -9 -15 -9 -8 0 -15 -4 -15 -10 0 -5 -9 -10 -20 -10 -11 0 -23 -7
-26 -15 -4 -8 -13 -15 -21 -15 -9 0 -26 -11 -39 -25 -13 -14 -30 -25 -39 -25
-9 0 -18 -7 -21 -15 -4 -8 -12 -15 -20 -15 -8 0 -14 -4 -14 -9 0 -5 -9 -12
-19 -16 -11 -3 -40 -26 -66 -50 -25 -25 -50 -45 -54 -45 -4 0 -30 -22 -58 -50
-28 -27 -56 -50 -62 -50 -6 0 -11 -5 -11 -11 0 -6 -22 -34 -50 -62 -27 -28
-50 -55 -50 -59 0 -4 -17 -25 -37 -47 -21 -21 -49 -53 -63 -71 -14 -17 -31
-38 -37 -45 -7 -8 -13 -18 -13 -24 0 -6 -3 -11 -8 -11 -4 0 -16 -17 -27 -37
-11 -21 -24 -43 -30 -50 -5 -7 -16 -19 -22 -27 -7 -8 -13 -20 -13 -26 0 -5 -3
-10 -7 -10 -11 0 -43 -58 -43 -76 0 -8 -4 -14 -9 -14 -5 0 -12 -11 -15 -25 -4
-14 -11 -25 -16 -25 -6 0 -10 -11 -10 -24 0 -13 -7 -26 -15 -30 -8 -3 -15 -15
-15 -26 0 -11 -4 -20 -10 -20 -5 0 -10 -14 -10 -31 0 -17 -4 -28 -10 -24 -6 4
-10 -6 -10 -24 0 -16 -7 -36 -15 -45 -17 -17 -20 -36 -5 -36 6 0 10 -11 10
-25 0 -14 -4 -25 -10 -25 -5 0 -10 7 -10 15 0 8 -4 15 -10 15 -5 0 -10 -7 -10
-15 0 -8 5 -15 10 -15 6 0 10 -11 10 -25 0 -27 26 -75 41 -75 5 0 9 7 9 15 0
8 -4 15 -10 15 -5 0 -10 16 -10 35 0 19 5 35 10 35 6 0 10 -7 10 -15 0 -8 4
-15 9 -15 19 0 21 20 6 56 -8 20 -12 40 -9 43 4 3 9 0 11 -6 8 -23 33 -14 33
11 0 13 7 26 15 30 8 3 15 15 15 26 0 11 5 20 10 20 6 0 10 11 10 25 0 14 4
25 10 25 5 0 12 11 16 25 3 14 10 25 15 25 5 0 9 11 9 24 0 13 7 26 15 30 8 3
15 15 15 26 0 11 5 20 10 20 6 0 10 9 10 20 0 12 11 31 25 44 14 13 25 27 25
32 0 9 22 39 62 87 10 11 18 26 18 34 0 7 5 13 10 13 6 0 10 5 10 11 0 14 25
39 39 39 6 0 11 8 11 19 0 10 11 27 25 37 14 10 25 24 25 31 0 7 7 13 16 13 8
0 12 5 9 10 -3 6 1 10 9 10 9 0 16 7 16 15 0 8 4 15 9 15 5 0 44 34 86 75 43
41 81 75 87 75 5 0 19 11 32 25 13 14 26 25 30 25 4 0 14 6 21 13 31 27 44 37
51 37 4 0 17 11 30 25 13 14 28 25 35 25 6 0 22 11 35 25 13 14 30 25 39 25 9
0 23 6 30 13 35 31 45 37 60 37 8 0 15 5 15 10 0 6 9 10 20 10 11 0 23 7 26
15 4 8 17 15 30 15 13 0 24 5 24 10 0 6 11 10 24 10 14 0 31 7 40 15 8 8 24
15 35 15 12 0 21 4 21 9 0 5 11 12 25 15 14 4 25 11 25 16 0 6 16 10 35 10 19
0 35 4 35 9 0 5 18 11 40 15 22 3 40 11 40 16 0 6 23 10 50 10 28 0 50 4 50 9
0 4 27 11 60 15 33 4 62 11 65 16 4 6 37 10 76 10 39 0 69 4 69 10 0 6 90 10
249 10 156 0 252 -4 256 -10 3 -5 28 -10 55 -10 30 0 54 -6 64 -15 9 -9 33
-15 60 -15 25 0 46 -4 46 -10 0 -5 21 -10 48 -10 26 0 56 -7 66 -15 11 -8 30
-15 43 -15 13 0 23 -4 23 -10 0 -5 15 -10 33 -10 17 0 41 -7 51 -15 11 -8 30
-15 43 -15 13 0 23 -4 23 -10 0 -5 9 -10 21 -10 11 0 27 -7 35 -15 9 -8 26
-15 40 -15 13 0 24 -4 24 -9 0 -5 10 -11 23 -15 12 -3 32 -14 44 -26 12 -11
26 -20 32 -20 14 0 71 -34 71 -42 0 -5 9 -8 20 -8 12 0 31 -11 44 -25 13 -14
26 -25 30 -25 7 0 20 -10 51 -37 7 -7 18 -13 24 -13 6 0 11 -4 11 -9 0 -5 10
-13 22 -17 12 -3 36 -22 54 -40 17 -19 35 -34 39 -34 3 0 40 -34 81 -75 41
-41 79 -75 84 -75 15 0 67 -55 75 -79 3 -11 11 -21 16 -21 5 0 9 -5 9 -10 0
-6 11 -22 25 -36 14 -14 25 -30 25 -36 0 -6 11 -21 25 -34 14 -13 25 -30 25
-39 0 -8 5 -15 10 -15 6 0 10 -7 10 -15 0 -8 4 -15 9 -15 5 0 13 -10 17 -22 4
-13 17 -33 30 -45 13 -12 24 -29 24 -38 0 -8 3 -15 8 -15 4 0 16 -20 27 -45
11 -25 23 -45 27 -45 5 0 8 -8 8 -19 0 -10 7 -24 15 -31 8 -7 15 -23 15 -36 0
-13 5 -24 10 -24 6 0 10 -6 10 -14 0 -7 7 -19 15 -26 8 -7 15 -23 15 -36 0
-13 5 -24 10 -24 6 0 10 -13 10 -28 0 -16 7 -37 15 -48 8 -10 15 -31 15 -46 0
-16 5 -28 10 -28 6 0 10 -17 10 -38 0 -21 7 -47 15 -58 8 -10 15 -38 15 -61 0
-24 4 -43 9 -43 4 0 11 -34 13 -76 3 -41 10 -80 17 -87 6 -6 11 -44 11 -89 0
-45 4 -78 10 -78 6 0 10 -7 10 -15 0 -8 -4 -15 -10 -15 -15 0 -13 -147 3 -154
10 -5 10 -7 0 -12 -9 -4 -13 -37 -13 -115 0 -61 -5 -119 -10 -130 -6 -10 -13
-55 -17 -99 -3 -44 -10 -80 -14 -80 -5 0 -9 -17 -9 -39 0 -21 -7 -52 -15 -67
-8 -16 -15 -41 -15 -56 0 -16 -4 -28 -10 -28 -5 0 -10 -14 -10 -31 0 -17 -7
-37 -15 -45 -8 -9 -15 -31 -15 -50 0 -19 -4 -34 -10 -34 -5 0 -10 -13 -10 -30
0 -16 -4 -30 -10 -30 -5 0 -12 -11 -16 -25 -3 -14 -10 -25 -15 -25 -5 0 -9
-11 -9 -25 0 -14 -4 -25 -10 -25 -5 0 -12 -11 -16 -25 -3 -14 -10 -25 -15 -25
-5 0 -9 -11 -9 -25 0 -14 -4 -25 -9 -25 -5 0 -13 -10 -17 -22 -4 -13 -9 -25
-13 -28 -10 -8 -31 -44 -37 -62 -4 -10 -10 -18 -15 -18 -5 0 -9 -7 -9 -15 0
-9 -11 -26 -25 -39 -14 -13 -25 -30 -25 -37 0 -8 -8 -22 -17 -30 -25 -22 -63
-72 -63 -82 0 -12 -26 -37 -39 -37 -6 0 -11 -6 -11 -14 0 -8 -6 -16 -12 -19
-8 -2 -9 -8 -4 -13 5 -5 11 -4 13 4 3 6 9 12 15 12 6 0 25 16 44 35 38 40 44
43 44 15 0 -11 -4 -20 -10 -20 -5 0 -10 -7 -10 -15 0 -8 -7 -15 -15 -15 -8 0
-15 -5 -15 -11 0 -6 -6 -17 -12 -24 -27 -30 -38 -44 -38 -49 0 -10 -161 -166
-171 -166 -6 0 -7 -4 -4 -10 3 -5 1 -10 -5 -10 -6 0 -18 -6 -25 -13 -33 -29
-45 -37 -55 -37 -5 0 -10 -7 -10 -15 0 -8 -5 -15 -10 -15 -6 0 -23 -11 -38
-25 -15 -14 -31 -25 -36 -25 -5 0 -19 -11 -32 -25 -13 -14 -30 -25 -39 -25 -8
0 -15 -4 -15 -10 0 -5 -7 -10 -15 -10 -9 0 -18 -7 -21 -15 -4 -8 -15 -15 -25
-15 -10 0 -19 -4 -19 -9 0 -5 -3 -16 -6 -25 -9 -25 16 -19 42 9 13 14 32 25
44 25 11 0 20 4 20 10 0 5 11 12 25 16 14 3 25 9 25 13 0 4 14 15 32 25 33 20
53 36 96 74 14 12 29 22 33 22 11 0 329 318 329 329 0 5 18 29 40 52 22 24 43
51 46 61 3 10 10 18 15 18 5 0 9 7 9 16 0 8 6 22 13 29 29 33 37 45 37 55 0 5
4 10 9 10 5 0 12 11 15 25 4 14 11 25 16 25 6 0 10 9 10 21 0 11 6 27 13 34
31 36 37 45 37 64 0 11 3 21 8 23 13 5 72 139 72 162 0 9 5 16 10 16 6 0 10
11 10 25 0 14 4 25 9 25 5 0 12 16 15 35 4 19 11 35 16 35 6 0 10 18 10 40 0
22 4 40 10 40 5 0 12 23 16 50 4 28 10 50 15 50 5 0 9 18 9 39 0 22 5 41 12
43 6 2 13 31 16 66 2 34 8 62 12 62 3 0 8 46 9 103 1 56 6 104 12 105 13 5 12
332 -1 332 -5 0 -10 14 -10 31 0 17 4 28 10 24 6 -3 10 1 10 9 0 9 -4 16 -10
16 -5 0 -10 11 -10 24 0 18 5 23 23 22 l22 -1 3 -259 c2 -208 0 -270 -12 -320
-9 -34 -16 -86 -16 -114 0 -29 -4 -52 -10 -52 -6 0 -10 -28 -10 -64 0 -38 -5
-66 -11 -68 -6 -2 -13 -25 -16 -51 -5 -45 -5 -47 21 -47 21 0 26 5 26 24 0 13
-6 26 -12 29 -9 3 -8 9 5 18 10 9 18 30 20 56 1 23 6 45 10 49 4 4 7 22 7 41
0 18 4 33 9 33 4 0 12 28 15 62 4 35 12 68 17 74 12 14 5 428 -9 594 -6 66
-14 116 -21 118 -6 2 -11 27 -11 57 0 30 -4 56 -9 60 -5 3 -13 30 -16 60 -4
30 -11 52 -16 49 -5 -3 -9 13 -9 35 0 22 -4 42 -9 45 -5 3 -12 22 -15 41 -4
19 -11 35 -16 35 -6 0 -10 15 -10 33 0 17 -7 41 -15 51 -8 11 -15 28 -15 38 0
10 -4 18 -10 18 -5 0 -10 6 -10 13 0 14 -29 78 -39 87 -4 3 -15 22 -26 43 -11
20 -23 37 -27 37 -5 0 -8 11 -8 24 0 13 -7 26 -15 30 -8 3 -15 15 -15 26 0 11
-4 20 -10 20 -5 0 -10 7 -10 15 0 8 -4 15 -9 15 -5 0 -13 10 -17 22 -4 12 -22
37 -40 55 -19 18 -34 40 -34 48 0 9 -7 18 -15 21 -8 4 -15 10 -15 16 0 5 -11
20 -25 34 -14 14 -25 29 -25 34 0 13 -277 290 -289 290 -6 0 -28 18 -50 40
-22 22 -45 40 -51 40 -6 0 -8 5 -5 10 3 6 0 10 -8 10 -8 0 -17 7 -21 15 -3 8
-13 15 -22 15 -9 0 -27 11 -40 25 -13 14 -31 25 -41 25 -10 0 -27 11 -37 25
-10 14 -27 25 -37 25 -11 0 -19 4 -19 9 0 5 -11 12 -25 15 -14 4 -25 11 -25
16 0 6 -9 10 -20 10 -12 0 -31 11 -44 25 -15 16 -34 25 -54 25 -17 0 -32 6
-36 15 -3 8 -15 15 -26 15 -11 0 -20 5 -20 10 0 6 -11 10 -24 10 -13 0 -26 3
-28 8 -6 15 -70 42 -99 42 -16 0 -29 4 -29 9 0 17 -34 22 -46 7 -12 -18 -44
-22 -44 -6 0 6 5 10 10 10 6 0 10 7 10 15 0 10 -10 15 -30 15 -16 0 -30 -4
-30 -10 0 -5 -11 -10 -24 -10 -19 0 -23 4 -19 20 5 17 0 20 -26 20 -17 0 -31
-4 -31 -10 0 -5 -9 -10 -20 -10 -15 0 -20 7 -20 25 0 24 -3 25 -60 25 -33 0
-60 4 -60 9 0 4 -50 11 -112 15 -61 4 -120 12 -129 17 -17 8 -163 10 -219 3z
m1200 -334 c0 -5 -4 -10 -10 -10 -5 0 -10 5 -10 10 0 6 5 10 10 10 6 0 10 -4
10 -10z m100 -50 c0 -5 -4 -10 -10 -10 -5 0 -10 5 -10 10 0 6 5 10 10 10 6 0
10 -4 10 -10z m200 -150 c0 -5 -4 -10 -10 -10 -5 0 -10 5 -10 10 0 6 5 10 10
10 6 0 10 -4 10 -10z m50 -50 c0 -5 -4 -10 -10 -10 -5 0 -10 5 -10 10 0 6 5
10 10 10 6 0 10 -4 10 -10z m130 -94 c0 -3 -4 -8 -10 -11 -5 -3 -10 -1 -10 4
0 6 5 11 10 11 6 0 10 -2 10 -4z m370 -506 c0 -5 -4 -10 -10 -10 -5 0 -10 5
-10 10 0 6 5 10 10 10 6 0 10 -4 10 -10z m30 -51 c0 -5 -4 -9 -10 -9 -5 0 -10
7 -10 16 0 8 5 12 10 9 6 -3 10 -10 10 -16z m20 -44 c0 -8 -4 -15 -10 -15 -5
0 -10 7 -10 15 0 8 5 15 10 15 6 0 10 -7 10 -15z m30 -56 c0 -5 -4 -9 -10 -9
-5 0 -10 7 -10 16 0 8 5 12 10 9 6 -3 10 -10 10 -16z m20 -44 c0 -8 -4 -15
-10 -15 -5 0 -10 7 -10 15 0 8 5 15 10 15 6 0 10 -7 10 -15z m50 -125 c0 -5
-5 -10 -11 -10 -5 0 -7 5 -4 10 3 6 8 10 11 10 2 0 4 -4 4 -10z m150 -415 c0
-25 -4 -45 -10 -45 -5 0 -10 20 -10 45 0 25 5 45 10 45 6 0 10 -20 10 -45z m0
-95 c0 -5 -4 -10 -10 -10 -5 0 -10 5 -10 10 0 6 5 10 10 10 6 0 10 -4 10 -10z"/>
<path d="M2920 4059 c-63 -5 -116 -14 -118 -19 -2 -6 -30 -10 -63 -10 -32 0
-59 -4 -59 -9 0 -5 -22 -12 -50 -16 -27 -4 -50 -11 -50 -16 0 -5 -15 -9 -34
-9 -19 0 -37 -4 -40 -9 -4 -5 -24 -12 -46 -16 -22 -4 -38 -11 -34 -16 3 -5 -8
-9 -25 -9 -16 0 -32 -4 -36 -9 -3 -5 -19 -12 -35 -16 -17 -4 -30 -11 -30 -16
0 -5 -9 -9 -20 -9 -22 0 -93 -31 -98 -42 -2 -5 -15 -8 -28 -8 -13 0 -24 -4
-24 -9 0 -5 -13 -12 -30 -16 -16 -4 -30 -11 -30 -16 0 -5 -6 -9 -14 -9 -18 0
-76 -32 -76 -42 0 -5 -11 -8 -25 -8 -14 0 -25 -4 -25 -10 0 -5 -11 -12 -25
-16 -14 -3 -25 -10 -25 -15 0 -5 -5 -9 -11 -9 -6 0 -17 -6 -24 -12 -27 -24
-40 -34 -55 -41 -27 -12 -52 -31 -85 -64 -18 -18 -37 -33 -44 -33 -6 0 -11 -5
-11 -11 0 -14 -25 -39 -39 -39 -6 0 -11 -5 -11 -11 0 -14 -25 -39 -39 -39 -6
0 -11 -7 -11 -15 0 -8 -4 -15 -10 -15 -5 0 -10 -9 -10 -19 0 -10 -7 -21 -15
-25 -8 -3 -15 -15 -15 -26 0 -11 -4 -20 -10 -20 -5 0 -10 -8 -10 -19 0 -10 -7
-24 -15 -31 -8 -7 -15 -27 -15 -45 0 -19 -5 -35 -11 -37 -15 -5 -15 -271 0
-276 6 -2 11 -19 11 -37 0 -20 6 -35 15 -39 8 -3 15 -15 15 -26 0 -11 5 -20
10 -20 6 0 10 -11 10 -25 0 -16 6 -25 15 -25 8 0 15 -7 15 -15 0 -8 5 -15 10
-15 6 0 10 -6 10 -13 0 -8 23 -37 50 -66 27 -29 50 -56 50 -62 0 -5 7 -9 15
-9 8 0 15 -5 15 -10 0 -6 10 -22 23 -35 12 -13 34 -38 50 -54 15 -16 27 -35
27 -40 0 -6 5 -11 11 -11 14 0 39 -25 39 -39 0 -6 7 -11 15 -11 8 0 59 -45
114 -100 55 -55 104 -100 110 -100 6 0 11 -5 11 -10 0 -6 22 -33 50 -61 50
-50 63 -79 35 -79 -8 0 -15 -4 -15 -10 0 -5 -6 -10 -14 -10 -17 0 -80 -32 -84
-42 -2 -5 -12 -8 -23 -8 -11 0 -22 -7 -25 -15 -4 -8 -15 -15 -25 -15 -10 0
-19 -4 -19 -9 0 -5 -8 -11 -17 -15 -19 -6 -55 -27 -63 -37 -3 -4 -15 -9 -27
-13 -13 -4 -23 -12 -23 -17 0 -5 -7 -9 -15 -9 -8 0 -15 -3 -15 -8 0 -4 -16
-16 -35 -26 -19 -11 -35 -23 -35 -28 0 -4 -7 -8 -15 -8 -8 0 -25 -11 -39 -25
-14 -14 -27 -25 -30 -25 -14 0 -216 -211 -216 -225 0 -9 -7 -18 -15 -21 -8 -4
-15 -12 -15 -20 0 -8 -4 -14 -10 -14 -5 0 -10 -10 -10 -23 0 -13 -7 -32 -15
-43 -21 -28 -21 -222 0 -230 8 -4 15 -15 15 -26 0 -24 115 -142 148 -152 12
-4 22 -12 22 -17 0 -5 11 -9 25 -9 14 0 25 -4 25 -9 0 -5 13 -12 30 -16 16 -4
32 -11 35 -16 4 -5 19 -9 35 -9 15 0 30 -6 32 -12 6 -18 420 -18 425 0 3 7 23
12 54 12 27 0 49 5 49 10 0 6 11 10 24 10 14 0 31 7 40 15 8 8 22 15 31 15 22
0 75 28 75 40 0 6 11 10 25 10 16 0 25 6 25 15 0 8 5 15 11 15 14 0 107 98
114 121 4 11 11 19 16 19 5 0 9 10 9 23 0 12 7 31 15 41 9 11 15 41 15 68 0
26 5 48 10 48 6 0 10 18 10 40 0 22 -4 40 -10 40 -6 0 -10 26 -10 58 0 36 -6
66 -15 78 -8 10 -15 29 -15 42 0 12 -4 22 -10 22 -5 0 -10 9 -10 20 0 11 -7
23 -15 26 -8 4 -15 15 -15 26 0 12 -11 31 -25 44 -14 13 -25 28 -25 35 0 6
-11 22 -25 35 -14 13 -25 28 -25 34 0 6 -11 21 -25 34 -14 13 -25 27 -25 31 0
4 -27 34 -60 66 -68 66 -67 81 4 94 20 4 36 11 36 16 0 5 9 9 21 9 11 0 27 7
35 15 9 8 29 15 45 15 16 0 29 5 29 10 0 6 14 10 31 10 17 0 37 7 45 15 9 8
26 15 40 15 13 0 24 5 24 10 0 6 10 10 23 10 12 0 31 7 41 15 11 8 30 15 43
15 13 0 23 5 23 10 0 6 15 10 33 10 17 0 41 7 51 15 11 8 30 15 43 15 13 0 23
5 23 10 0 6 15 10 33 10 17 0 41 7 51 15 11 8 37 15 58 15 21 0 38 5 38 10 0
6 16 10 35 10 19 0 35 4 35 10 0 5 18 13 40 16 22 4 40 10 40 15 0 5 19 9 43
9 23 0 51 7 61 15 11 8 30 15 43 15 13 0 23 5 23 10 0 6 21 10 46 10 27 0 51
6 60 15 9 8 26 15 40 15 13 0 24 5 24 10 0 6 -22 10 -50 10 -27 0 -50 -4 -50
-10 0 -5 -22 -10 -49 -10 -27 0 -51 -5 -53 -11 -2 -6 -25 -13 -51 -16 -26 -3
-47 -10 -47 -14 0 -5 -15 -9 -32 -9 -18 0 -42 -7 -52 -15 -11 -8 -35 -15 -53
-15 -18 0 -33 -4 -33 -10 0 -5 -16 -10 -36 -10 -19 0 -42 -7 -50 -15 -9 -8
-29 -15 -45 -15 -16 0 -29 -4 -29 -10 0 -5 -15 -10 -33 -10 -18 0 -42 -7 -53
-15 -10 -8 -34 -15 -51 -15 -18 0 -33 -4 -33 -10 0 -5 -15 -10 -32 -10 -18 0
-42 -7 -52 -15 -11 -8 -30 -15 -43 -15 -13 0 -23 -4 -23 -10 0 -5 -15 -10 -32
-10 -18 0 -42 -7 -52 -15 -11 -8 -30 -15 -43 -15 -13 0 -23 -4 -23 -10 0 -5
-15 -10 -34 -10 -21 0 -36 -6 -40 -15 -3 -9 -19 -15 -41 -15 -19 0 -35 -4 -35
-10 0 -5 -11 -10 -24 -10 -13 0 -29 -7 -36 -15 -7 -8 -25 -15 -41 -15 -23 0
-55 27 -178 150 -83 83 -155 150 -161 150 -5 0 -10 5 -10 11 0 14 -25 39 -39
39 -6 0 -11 7 -11 15 0 8 -5 15 -11 15 -11 0 -39 25 -39 35 0 4 -29 36 -65 71
-36 36 -65 69 -65 75 0 6 -16 25 -35 43 -19 19 -35 41 -35 50 0 9 -7 19 -15
22 -8 4 -15 12 -15 20 0 8 -4 14 -10 14 -5 0 -10 8 -10 18 0 9 -7 26 -15 36
-8 11 -15 30 -15 42 0 12 -5 24 -11 26 -14 5 -15 278 -1 287 6 3 14 19 17 34
4 15 11 27 16 27 5 0 9 7 9 17 0 9 11 31 25 49 14 18 25 36 25 40 0 11 189
194 201 194 5 0 20 11 33 25 13 14 26 25 30 25 4 0 14 6 21 13 33 29 45 37 55
37 5 0 10 4 10 9 0 5 11 12 25 15 14 4 25 11 25 16 0 6 9 10 20 10 11 0 20 5
20 10 0 6 6 10 14 10 7 0 19 7 26 15 7 8 21 15 31 15 11 0 19 5 19 10 0 6 6
10 14 10 17 0 80 32 84 43 2 4 11 7 20 7 10 0 26 7 36 15 11 8 30 15 43 15 13
0 23 5 23 10 0 6 9 10 21 10 11 0 27 7 35 15 9 8 29 15 45 15 16 0 29 5 29 10
0 6 15 10 34 10 18 0 39 7 46 15 8 9 30 15 56 15 24 0 44 5 44 10 0 6 20 10
44 10 26 0 48 6 56 15 9 10 32 15 76 15 36 0 64 4 64 10 0 6 52 10 135 10 83
0 135 -4 135 -10 0 -5 18 -10 39 -10 22 0 41 -5 43 -10 2 -6 13 -12 26 -13 12
0 22 -7 22 -14 0 -7 5 -13 12 -13 17 0 68 -61 68 -82 0 -10 5 -18 10 -18 6 0
10 -27 10 -60 0 -33 -4 -60 -9 -60 -5 0 -12 -13 -16 -30 -4 -16 -11 -30 -16
-30 -5 0 -9 -7 -9 -15 0 -14 -17 -33 -67 -75 -7 -5 -17 -10 -23 -10 -5 0 -10
-4 -10 -10 0 -5 -9 -10 -20 -10 -11 0 -23 -7 -26 -15 -4 -8 -13 -15 -21 -15
-10 0 -13 -6 -9 -16 3 -9 6 -19 6 -23 0 -12 34 -9 55 5 11 8 28 14 38 14 10 0
31 12 47 28 15 15 36 34 46 44 38 33 64 66 64 81 0 8 5 17 12 19 18 6 18 220
1 225 -7 3 -13 14 -13 25 0 18 -50 78 -65 78 -3 0 -18 11 -33 25 -15 14 -39
25 -54 25 -14 0 -28 4 -30 9 -7 20 -210 32 -358 20z m-657 -2119 c9 -11 17
-25 17 -30 0 -6 5 -10 11 -10 12 0 39 -25 39 -36 0 -4 11 -17 25 -30 14 -13
25 -28 25 -34 0 -6 11 -21 25 -34 14 -13 25 -29 25 -35 0 -7 4 -10 9 -7 5 3
12 -5 15 -19 4 -14 11 -25 16 -25 6 0 10 -7 10 -15 0 -8 4 -15 9 -15 5 0 12
-11 15 -25 4 -14 11 -25 16 -25 6 0 10 -11 10 -25 0 -14 4 -25 9 -25 5 0 12
-11 15 -25 4 -14 11 -25 16 -25 6 0 10 -55 10 -140 0 -85 -4 -140 -10 -140 -5
0 -12 -11 -16 -25 -3 -14 -10 -25 -15 -25 -5 0 -9 -7 -9 -15 0 -19 -86 -105
-105 -105 -8 0 -15 -4 -15 -10 0 -5 -6 -10 -14 -10 -8 0 -16 -7 -20 -15 -3 -8
-14 -15 -25 -15 -11 0 -21 -3 -23 -7 -6 -16 -70 -43 -99 -43 -16 0 -29 -4 -29
-10 0 -5 -14 -10 -30 -10 -17 0 -47 -7 -67 -15 -50 -21 -296 -21 -346 0 -20 8
-48 15 -62 15 -14 0 -25 5 -25 10 0 6 -11 10 -24 10 -13 0 -29 7 -36 15 -7 8
-21 15 -31 15 -11 0 -19 5 -19 10 0 6 -4 10 -10 10 -10 0 -70 56 -70 65 0 5
-10 18 -36 48 -13 15 -26 69 -26 112 0 46 14 125 22 125 4 0 11 11 14 25 4 14
11 25 16 25 6 0 10 5 10 10 0 10 8 22 38 55 6 7 12 17 12 20 0 8 110 115 119
115 3 0 18 11 33 25 15 14 31 25 36 25 6 0 12 7 16 15 3 8 12 15 21 15 8 0 15
5 15 10 0 6 6 10 14 10 8 0 16 7 20 15 3 8 15 15 26 15 11 0 20 5 20 10 0 6 6
10 14 10 8 0 16 7 20 15 3 8 12 15 21 15 8 0 15 5 15 10 0 6 9 10 20 10 11 0
20 4 20 10 0 5 11 12 25 16 14 3 25 10 25 15 0 5 9 9 19 9 10 0 21 7 25 15 3
8 15 15 26 15 11 0 20 5 20 10 0 6 7 10 15 10 8 0 15 5 15 10 0 6 6 10 14 10
8 0 21 6 29 14 7 8 25 16 38 19 13 2 26 5 29 6 3 0 13 -8 23 -19z"/>
<path d="M250 3240 c0 -11 5 -20 11 -20 11 0 10 -16 -7 -114 -5 -30 -4 -38 7
-34 8 3 15 21 17 41 3 39 16 48 26 21 4 -9 9 -14 12 -11 8 7 -18 97 -27 97 -4
0 -9 9 -12 20 -3 11 -10 20 -16 20 -6 0 -11 -9 -11 -20z"/>
<path d="M276 3052 c-7 -12 5 -52 15 -52 5 0 9 14 9 30 0 28 -13 40 -24 22z"/>
<path d="M226 3019 c-10 -50 -7 -69 9 -69 11 0 15 11 15 40 0 22 0 43 1 47 0
4 -4 9 -9 11 -5 1 -12 -11 -16 -29z"/>
<path d="M200 2871 c0 -63 15 -90 24 -44 10 52 5 103 -10 103 -10 0 -14 -15
-14 -59z"/>
<path d="M250 2915 c0 -8 5 -15 10 -15 6 0 10 7 10 15 0 8 -4 15 -10 15 -5 0
-10 -7 -10 -15z"/>
<path d="M237 2753 c-11 -10 -8 -53 3 -53 6 0 10 14 10 30 0 31 -2 35 -13 23z"/>
<path d="M177 2693 c-7 -64 1 -143 14 -143 5 0 9 45 9 100 0 109 -14 134 -23
43z"/>
<path d="M4660 1804 c0 -14 -7 -32 -15 -40 -8 -9 -15 -26 -15 -40 0 -13 -4
-24 -10 -24 -5 0 -10 -16 -10 -35 0 -19 -4 -35 -9 -35 -5 0 -12 -13 -16 -30
-4 -16 -11 -30 -16 -30 -5 0 -9 -6 -9 -14 0 -18 -32 -76 -42 -76 -5 0 -8 -11
-8 -24 0 -13 -7 -29 -15 -36 -8 -7 -15 -19 -15 -26 0 -8 -4 -14 -10 -14 -15 0
-12 -49 4 -66 19 -18 36 -18 36 1 0 8 5 15 10 15 6 0 10 6 10 14 0 8 8 29 18
46 13 25 14 34 5 37 -20 7 -15 23 7 23 13 0 22 9 26 25 3 14 10 25 15 25 5 0
9 11 9 24 0 13 6 26 14 29 8 3 12 14 10 25 -3 10 2 24 10 31 9 8 16 24 16 36
0 13 5 25 11 27 6 2 12 18 13 37 1 18 7 36 12 39 6 4 11 24 11 45 1 33 -2 37
-23 37 -19 0 -24 -5 -24 -26z"/>
<path d="M4435 1300 c-3 -11 -11 -20 -16 -20 -5 0 -9 -7 -9 -15 0 -8 -4 -15
-10 -15 -5 0 -12 -11 -16 -25 -3 -14 -10 -25 -15 -25 -5 0 -9 -5 -9 -10 0 -10
-8 -22 -37 -55 -16 -16 -17 -35 -3 -35 6 0 10 -7 10 -15 0 -8 -4 -15 -10 -15
-5 0 -10 7 -10 15 0 8 -2 15 -5 15 -9 0 -45 -40 -45 -50 0 -6 -12 -22 -26 -35
-15 -14 -23 -29 -19 -36 5 -7 15 -2 31 17 13 15 27 24 32 19 4 -4 1 -10 -5
-12 -15 -5 -17 -33 -3 -33 6 0 10 6 10 14 0 8 7 17 16 20 15 6 15 8 -1 26 -16
17 -16 20 -2 20 8 0 17 -6 20 -12 5 -15 46 29 47 50 0 6 5 12 10 12 6 0 10 7
10 15 0 8 -4 15 -10 15 -5 0 -10 8 -10 18 1 36 50 73 50 37 0 -8 5 -15 10 -15
14 0 12 37 -2 43 -7 3 -3 6 9 6 27 1 40 20 22 32 -7 4 -10 12 -5 16 5 4 11 2
13 -4 7 -21 23 -15 23 8 0 18 -21 49 -34 49 -2 0 -8 -9 -11 -20z m-75 -184 c0
-3 -4 -8 -10 -11 -5 -3 -10 -1 -10 4 0 6 5 11 10 11 6 0 10 -2 10 -4z"/>
<path d="M4380 1163 c0 -5 4 -14 9 -21 7 -11 9 -11 14 1 3 8 3 18 0 21 -9 8
-23 7 -23 -1z"/>
<path d="M4010 990 c0 -5 5 -10 10 -10 6 0 10 5 10 10 0 6 -4 10 -10 10 -5 0
-10 -4 -10 -10z"/>
<path d="M730 940 c0 -5 5 -10 10 -10 6 0 10 5 10 10 0 6 -4 10 -10 10 -5 0
-10 -4 -10 -10z"/>
<path d="M4160 939 c0 -14 -25 -39 -39 -39 -6 0 -11 -9 -11 -20 0 -26 11 -25
40 2 16 15 25 18 28 10 5 -17 32 -15 32 3 0 8 5 15 10 15 6 0 10 9 10 20 0 11
-4 20 -10 20 -5 0 -10 -7 -10 -15 0 -8 -7 -15 -15 -15 -8 0 -15 7 -15 15 0 8
-4 15 -10 15 -5 0 -10 -5 -10 -11z"/>
<path d="M4148 859 c-21 -22 -22 -29 -7 -29 14 0 39 25 39 39 0 16 -13 12 -32
-10z"/>
<path d="M4060 809 c0 -5 5 -7 10 -4 6 3 10 8 10 11 0 2 -4 4 -10 4 -5 0 -10
-5 -10 -11z"/>
<path d="M4110 810 c0 -5 -5 -10 -11 -10 -14 0 -39 -25 -39 -39 0 -6 5 -11 10
-11 6 0 10 7 10 15 0 8 5 15 11 15 11 0 39 24 39 34 0 3 -4 6 -10 6 -5 0 -10
-4 -10 -10z"/>
<path d="M4010 790 c0 -5 9 -10 20 -10 11 0 20 5 20 10 0 6 -9 10 -20 10 -11
0 -20 -4 -20 -10z"/>
<path d="M3990 760 c0 -5 5 -10 10 -10 6 0 10 5 10 10 0 6 -4 10 -10 10 -5 0
-10 -4 -10 -10z"/>
<path d="M3960 740 c0 -5 5 -10 10 -10 6 0 10 5 10 10 0 6 -4 10 -10 10 -5 0
-10 -4 -10 -10z"/>
<path d="M4021 734 c-18 -21 -6 -30 14 -11 8 9 15 18 15 21 0 11 -15 5 -29
-10z"/>
<path d="M3923 705 c-7 -8 -13 -19 -13 -25 0 -5 -7 -10 -15 -10 -8 0 -15 -4
-15 -10 0 -5 -9 -10 -20 -10 -11 0 -20 -4 -20 -10 0 -5 5 -10 10 -10 6 0 10
-7 10 -15 0 -8 -4 -15 -10 -15 -5 0 -10 -4 -10 -10 0 -5 7 -10 16 -10 19 0 79
58 70 67 -3 4 -12 1 -18 -5 -15 -15 -28 -16 -28 -2 0 6 6 10 14 10 8 0 17 6
20 13 5 10 7 10 12 0 8 -18 34 -16 34 1 0 8 6 16 12 18 9 3 8 9 -4 21 -20 20
-29 21 -45 2z m37 -15 c0 -5 -7 -10 -15 -10 -8 0 -15 5 -15 10 0 6 7 10 15 10
8 0 15 -4 15 -10z"/>
<path d="M3810 616 c0 -9 -7 -16 -15 -16 -18 0 -19 -12 -3 -28 6 -6 8 -15 3
-19 -4 -5 -10 -2 -12 5 -5 14 -43 17 -43 3 0 -5 6 -11 13 -14 7 -2 8 -8 3 -13
-5 -5 -11 -4 -13 4 -6 16 -31 15 -49 -2 -7 -8 -19 -17 -26 -19 -10 -4 -10 -8
2 -16 8 -5 11 -14 6 -18 -5 -4 -11 -2 -13 5 -8 20 -44 14 -69 -13 -13 -14 -32
-25 -44 -25 -11 0 -20 -4 -20 -9 0 -5 -11 -12 -25 -15 -14 -4 -25 -11 -25 -16
0 -6 -11 -10 -25 -10 -14 0 -25 -4 -25 -10 0 -5 -9 -10 -20 -10 -11 0 -23 -7
-26 -15 -4 -8 -17 -15 -30 -15 -13 0 -24 -4 -24 -10 0 -5 -16 -10 -35 -10 -22
0 -38 -6 -41 -15 -4 -9 -19 -15 -40 -15 -19 0 -34 -4 -34 -10 0 -5 -11 -10
-24 -10 -14 0 -31 -7 -40 -15 -8 -8 -19 -15 -24 -15 -6 0 -13 -6 -16 -12 -5
-10 -7 -10 -12 0 -7 14 -54 16 -54 2 0 -5 5 -10 10 -10 6 0 10 -7 10 -16 0
-12 -6 -15 -27 -11 -85 18 -93 19 -93 8 0 -6 5 -11 10 -11 6 0 10 -4 10 -10 0
-6 -27 -10 -60 -10 -33 0 -60 4 -60 10 0 6 -8 10 -19 10 -14 0 -17 -6 -13 -25
l4 -25 -91 0 c-98 0 -122 -13 -42 -24 53 -7 131 2 131 14 0 5 30 10 68 13 85
6 182 26 182 38 0 5 23 9 50 9 28 0 50 4 50 9 0 5 18 11 40 15 22 3 40 11 40
16 0 6 16 10 35 10 19 0 35 5 35 10 0 6 11 10 25 10 16 0 25 6 25 15 0 10 10
15 29 15 29 0 93 27 99 43 2 4 15 7 28 7 13 0 24 4 24 10 0 5 11 12 25 16 14
3 25 10 25 15 0 5 6 9 14 9 21 0 77 32 103 58 12 12 29 22 38 22 8 0 15 5 15
10 0 6 7 10 15 10 8 0 15 4 15 9 0 5 10 13 22 17 12 3 30 15 41 25 18 17 18
19 4 25 -22 8 -22 24 -1 24 9 0 14 5 12 12 -6 18 -28 21 -28 4z m-530 -326 c0
-5 -4 -10 -10 -10 -5 0 -10 5 -10 10 0 6 5 10 10 10 6 0 10 -4 10 -10z"/>
<path d="M3510 490 c0 -5 5 -10 10 -10 6 0 10 5 10 10 0 6 -4 10 -10 10 -5 0
-10 -4 -10 -10z"/>
</g>
</svg>
